<svg xmlns="http://www.w3.org/2000/svg" xmlns:xlink="http://www.w3.org/1999/xlink" width="1024" height="1024" viewBox="0 0 1024 1024"><defs>
<linearGradient id="gradient_uuu" x1="0" y1="0" x2="1" y2="0">
<stop offset="0" stop-color="#9CA2EC"/>
<stop offset="0.5" stop-color="#C9A0C4"/>
<stop offset="1" stop-color="#FE7347"/>
</linearGradient>
</defs><rect x="100" y="100" width="824" height="824" rx="185.4" ry="185.4" fill="#010022"/><g transform="translate(512 512) scale(1.08421) translate(-512 -512)"><g transform="translate(205.020,555) scale(0.284900,-0.284900)"><path fill="url(#gradient_uuu)" d="M230 702V282Q230 219 261.0 185.0Q292 151 352 151Q412 151 444.0 185.0Q476 219 476 282V702H647V283Q647 189 607.0 124.0Q567 59 499.5 26.0Q432 -7 349 -7Q266 -7 200.5 25.5Q135 58 97.0 123.5Q59 189 59 283V702ZM955 702V282Q955 219 986.0 185.0Q1017 151 1077 151Q1137 151 1169.0 185.0Q1201 219 1201 282V702H1372V283Q1372 189 1332.0 124.0Q1292 59 1224.5 26.0Q1157 -7 1074 -7Q991 -7 925.5 25.5Q860 58 822.0 123.5Q784 189 784 283V702ZM1680 702V282Q1680 219 1711.0 185.0Q1742 151 1802 151Q1862 151 1894.0 185.0Q1926 219 1926 282V702H2097V283Q2097 189 2057.0 124.0Q2017 59 1949.5 26.0Q1882 -7 1799 -7Q1716 -7 1650.5 25.5Q1585 58 1547.0 123.5Q1509 189 1509 283V702Z"/></g><g transform="translate(227.787,670) scale(0.092593,-0.092593)"><path fill="url(#gradient_uuu)" d="M519 702V565H233V417H447V284H233V0H62V702ZM800 132H1024V0H629V702H800ZM1563 124H1301L1259 0H1080L1334 702H1532L1786 0H1605ZM1519 256 1432 513 1346 256ZM1863 210H2045Q2049 171 2072.0 150.5Q2095 130 2132 130Q2170 130 2192.0 147.5Q2214 165 2214 196Q2214 222 2196.5 239.0Q2179 256 2153.5 267.0Q2128 278 2081 292Q2013 313 1970.0 334.0Q1927 355 1896.0 396.0Q1865 437 1865 503Q1865 601 1936.0 656.5Q2007 712 2121 712Q2237 712 2308.0 656.5Q2379 601 2384 502H2199Q2197 536 2174.0 555.5Q2151 575 2115 575Q2084 575 2065.0 558.5Q2046 542 2046 511Q2046 477 2078.0 458.0Q2110 439 2178 417Q2246 394 2288.5 373.0Q2331 352 2362.0 312.0Q2393 272 2393 209Q2393 149 2362.5 100.0Q2332 51 2274.0 22.0Q2216 -7 2137 -7Q2060 -7 1999.0 18.0Q1938 43 1901.5 92.0Q1865 141 1863 210ZM3126 702V0H2955V289H2689V0H2518V702H2689V427H2955V702ZM4006 702V565H3820V0H3649V565H3463V702ZM4083 353Q4083 456 4131.5 538.0Q4180 620 4262.5 666.0Q4345 712 4444 712Q4543 712 4625.5 666.0Q4708 620 4755.5 538.0Q4803 456 4803 353Q4803 250 4755.0 167.5Q4707 85 4625.0 39.0Q4543 -7 4444 -7Q4345 -7 4262.5 39.0Q4180 85 4131.5 167.5Q4083 250 4083 353ZM4629 353Q4629 446 4578.5 501.5Q4528 557 4444 557Q4359 557 4308.5 502.0Q4258 447 4258 353Q4258 260 4308.5 204.5Q4359 149 4444 149Q4528 149 4578.5 205.0Q4629 261 4629 353ZM4889 353Q4889 456 4937.5 538.0Q4986 620 5068.5 666.0Q5151 712 5250 712Q5349 712 5431.5 666.0Q5514 620 5561.5 538.0Q5609 456 5609 353Q5609 250 5561.0 167.5Q5513 85 5431.0 39.0Q5349 -7 5250 -7Q5151 -7 5068.5 39.0Q4986 85 4937.5 167.5Q4889 250 4889 353ZM5435 353Q5435 446 5384.5 501.5Q5334 557 5250 557Q5165 557 5114.5 502.0Q5064 447 5064 353Q5064 260 5114.5 204.5Q5165 149 5250 149Q5334 149 5384.5 205.0Q5435 261 5435 353ZM5895 132H6119V0H5724V702H5895Z"/></g></g></svg>