<svg xmlns="http://www.w3.org/2000/svg" viewBox="0 0 256 256">
  <defs>
    <linearGradient id="bg" x1="0" y1="0" x2="1" y2="1">
      <stop offset="0%" stop-color="#0D47A1"/>
      <stop offset="100%" stop-color="#1E88E5"/>
    </linearGradient>
  </defs>

  <rect x="0" y="0" width="256" height="256" rx="52" fill="url(#bg)"/>
  <circle cx="128" cy="128" r="88" fill="none" stroke="white" stroke-width="8" opacity="0.3"/>

  <!-- USB symbol scaled and centered (original 47x47 → 170x170, offset 43,43) -->
  <g transform="translate(69,187) rotate(-90) scale(2.5)" fill="white">
    <path d="M26.6966 32.3111L28.3958 32.3111L28.3957 34.2694L26.6965 34.2694C24.9868 34.2694 23.3775 33.3582 22.4988 31.8923L18.0497 24.4777L9.69255 24.4777L9.69255 22.5196L12.1534 22.5196L15.6504 16.2258C16.512 14.6718 18.1518 13.707 19.9295 13.707L21.6407 13.707L21.6408 15.6654L19.9296 15.6654C18.8633 15.6654 17.8794 16.2439 17.3621 17.1762L14.3932 22.5195L37.2084 22.5195L37.2083 24.4777L20.3336 24.4777L24.1779 30.8844C24.7057 31.7642 25.6706 32.3111 26.6966 32.3111Z"/>
    <path d="M43.5 22.634C44.1667 23.0189 44.1667 23.9811 43.5 24.366L38.25 27.3971C37.5833 27.782 36.75 27.3009 36.75 26.5311L36.75 20.4689C36.75 19.6991 37.5833 19.218 38.25 19.6029L43.5 22.634Z"/>
    <rect x="28" y="30.5" width="6" height="6" rx="1"/>
    <circle cx="25" cy="14.875" r="4"/>
    <circle cx="6.15625" cy="23.3125" r="4"/>
  </g>
</svg>
